<?xml version="1.0" encoding="UTF-8" standalone="no"?>
<svg width="20px" height="20px" viewBox="0 0 20 20" version="1.1" xmlns="http://www.w3.org/2000/svg" xmlns:xlink="http://www.w3.org/1999/xlink">
    <!-- Generator: Sketch 39.1 (31720) - http://www.bohemiancoding.com/sketch -->
    <title>close</title>
    <desc>Created with Sketch.</desc>
    <defs></defs>
    <g id="Page-1" stroke="none" stroke-width="1" fill="none" fill-rule="evenodd">
        <g id="Artboard-1" transform="translate(-27.000000, -437.000000)" fill="#FFFFFF">
            <g id="close" transform="translate(27.000000, 437.000000)">
                <path d="M12.1213203,10 L19.5606602,17.4393398 C20.1464466,18.0251263 20.1464466,18.9748737 19.5606602,19.5606602 C18.9748737,20.1464466 18.0251263,20.1464466 17.4393398,19.5606602 L10,12.1213203 L2.56066017,19.5606602 C1.97487373,20.1464466 1.02512627,20.1464466 0.439339828,19.5606602 C-0.146446609,18.9748737 -0.146446609,18.0251263 0.439339828,17.4393398 L7.87867966,10 L0.439339828,2.56066017 C-0.146446609,1.97487373 -0.146446609,1.02512627 0.439339828,0.439339828 C1.02512627,-0.146446609 1.97487373,-0.146446609 2.56066017,0.439339828 L10,7.87867966 L17.4393398,0.439339828 C18.0251263,-0.146446609 18.9748737,-0.146446609 19.5606602,0.439339828 C20.1464466,1.02512627 20.1464466,1.97487373 19.5606602,2.56066017 L12.1213203,10 Z" id="Combined-Shape"></path>
            </g>
        </g>
    </g>
</svg>